HIERARCHY
ROOT Hips
{
	OFFSET -0.001795 -0.223333 0.028219
	CHANNELS 6 Xposition Yposition Zposition Zrotation Yrotation Xrotation 
	JOINT LeftUpLeg
	{
		OFFSET 0.069520 -0.091406 -0.006815
		CHANNELS 3 Zrotation Yrotation Xrotation
		JOINT LeftLeg
		{
			OFFSET 0.034277 -0.375199 -0.004496
			CHANNELS 3 Zrotation Yrotation Xrotation
			JOINT LeftFoot
			{
				OFFSET -0.013596 -0.397961 -0.043693
				CHANNELS 3 Zrotation Yrotation Xrotation
				JOINT LeftToe
				{
					OFFSET 0.026358 -0.055791 0.119288
					CHANNELS 3 Zrotation Yrotation Xrotation
					End Site
					{
						OFFSET 0.000000 0.000000 0.000000
					}
				}
			}
		}
	}
	JOINT RightUpLeg
	{
		OFFSET -0.067670 -0.090522 -0.004320
		CHANNELS 3 Zrotation Yrotation Xrotation
		JOINT RightLeg
		{
			OFFSET -0.038290 -0.382569 -0.008850
			CHANNELS 3 Zrotation Yrotation Xrotation
			JOINT RightFoot
			{
				OFFSET 0.015774 -0.398415 -0.042312
				CHANNELS 3 Zrotation Yrotation Xrotation
				JOINT RightToe
				{
					OFFSET -0.025372 -0.048144 0.123348
					CHANNELS 3 Zrotation Yrotation Xrotation
					End Site
					{
						OFFSET 0.000000 0.000000 0.000000
					}
				}
			}
		}
	}
	JOINT Spine
	{
		OFFSET -0.002533 0.108963 -0.026696
		CHANNELS 3 Zrotation Yrotation Xrotation
		JOINT Spine1
		{
			OFFSET 0.005487 0.135180 0.001092
			CHANNELS 3 Zrotation Yrotation Xrotation
			JOINT Spine2
			{
				OFFSET 0.001457 0.052922 0.025425
				CHANNELS 3 Zrotation Yrotation Xrotation
				JOINT Neck
				{
					OFFSET -0.002778 0.213870 -0.042857
					CHANNELS 3 Zrotation Yrotation Xrotation
					JOINT Head
					{
						OFFSET 0.005152 0.064970 0.051349
						CHANNELS 3 Zrotation Yrotation Xrotation
						End Site
						{
							OFFSET 0.000000 0.000000 0.000000
						}
					}
				}
				JOINT LeftShoulder
				{
					OFFSET 0.078845 0.121749 -0.034090
					CHANNELS 3 Zrotation Yrotation Xrotation
					JOINT LeftArm
					{
						OFFSET 0.090977 0.030469 -0.008868
						CHANNELS 3 Zrotation Yrotation Xrotation
						JOINT LeftForeArm
						{
							OFFSET 0.259612 -0.012772 -0.027456
							CHANNELS 3 Zrotation Yrotation Xrotation
							JOINT LeftHand
							{
								OFFSET 0.249234 0.008986 -0.001171
								CHANNELS 3 Zrotation Yrotation Xrotation
								End Site
								{
									OFFSET 0.000000 0.000000 0.000000
								}
							}
						}
					}
				}
				JOINT RightShoulder
				{
					OFFSET -0.081759 0.118833 -0.038615
					CHANNELS 3 Zrotation Yrotation Xrotation
					JOINT RightArm
					{
						OFFSET -0.096012 0.032551 -0.009143
						CHANNELS 3 Zrotation Yrotation Xrotation
						JOINT RightForeArm
						{
							OFFSET -0.253742 -0.013329 -0.021401
							CHANNELS 3 Zrotation Yrotation Xrotation
							JOINT RightHand
							{
								OFFSET -0.255298 0.007772 -0.005559
								CHANNELS 3 Zrotation Yrotation Xrotation
								End Site
								{
									OFFSET 0.000000 0.000000 0.000000
								}
							}
						}
					}
				}
			}
		}
	}
}
MOTION
Frames: 5
Frame Time: 0.050000
0.000000 0.957781 0.000000 -4.768898 -17.806714 12.861210 11.080202 0.685162 -16.977560 -2.950535 0.475612 3.707787 15.175741 23.667290 29.432724 0.000000 0.000000 0.000000 -6.625617 1.608495 -16.831821 6.870615 -0.350465 10.091681 -7.247998 -20.384168 15.369017 0.000000 0.000000 0.000000 -1.284837 0.531011 27.575771 -6.688105 1.896337 -19.849157 -6.813037 5.468664 23.189887 12.788559 -5.918730 -26.894757 0.000000 0.000000 0.000000 2.705209 -40.455571 13.764234 -15.718604 -55.370512 3.042079 12.037434 -3.691871 -0.240218 0.000000 0.000000 0.000000 6.627589 24.614994 9.604087 47.871995 67.836804 23.206503 -19.321827 17.576243 -1.861159 0.000000 0.000000 0.000000 
-0.001404 0.959421 0.000617 -3.972979 -16.648195 11.764342 10.812197 0.566965 -16.981531 -3.085423 0.513735 5.177473 12.801506 21.164411 28.555775 0.000000 0.000000 0.000000 -7.171594 1.452042 -15.825645 7.057358 -0.424031 9.816298 -8.356891 -22.040875 16.863140 0.000000 0.000000 0.000000 -1.989091 0.611178 26.949476 -5.236969 1.526012 -21.162180 -7.707075 6.174431 25.016983 15.686383 -6.833947 -29.714145 0.000000 0.000000 0.000000 1.336158 -40.216766 14.019156 -17.427837 -55.743211 3.491223 13.106822 -4.774223 -0.352948 0.000000 0.000000 0.000000 7.053920 22.008216 8.708139 56.615847 68.757275 29.880136 -18.521318 19.143168 -1.900121 0.000000 0.000000 0.000000 
-0.002872 0.960203 0.001517 -3.385518 -14.226058 10.451998 10.613654 0.369812 -15.889515 -3.148780 0.481556 4.550100 10.673472 19.051123 27.620419 0.000000 0.000000 0.000000 -6.716059 1.218150 -13.496322 4.977943 -0.244261 7.945392 -8.694772 -22.446575 19.526911 0.000000 0.000000 0.000000 -0.266065 -0.105793 25.984016 -6.865475 2.047814 -19.733466 -7.850878 6.504160 23.751146 14.577143 -6.343756 -27.736995 0.000000 0.000000 0.000000 2.358050 -38.313433 12.814799 -24.746373 -55.777244 6.596079 13.969964 -9.972912 -0.825596 0.000000 0.000000 0.000000 7.852914 21.219490 8.683795 54.666672 65.392518 26.766310 -15.492550 22.035183 -1.753954 0.000000 0.000000 0.000000 
-0.004136 0.960829 0.002344 -2.718924 -12.809524 9.252244 9.823781 0.151577 -14.697968 -2.265465 0.301705 3.757224 8.878511 17.106139 27.889079 0.000000 0.000000 0.000000 -7.494231 1.018847 -11.287379 5.623308 -0.382948 5.969834 -9.927542 -23.959472 21.321977 0.000000 0.000000 0.000000 0.686104 -0.466828 25.194277 -7.894107 2.427335 -18.594586 -7.896387 6.864982 24.433455 13.568241 -5.262049 -29.643501 0.000000 0.000000 0.000000 2.906301 -35.316501 11.475765 -31.476868 -55.628545 9.366555 16.359520 -14.933116 -1.521419 0.000000 0.000000 0.000000 7.315072 19.406016 7.918034 58.907116 63.616112 28.514293 -14.213117 25.920144 -1.822656 0.000000 0.000000 0.000000 
-0.005262 0.961194 0.003117 -2.172460 -10.898959 8.071407 8.950132 -0.047317 -13.801265 -1.708773 0.192718 3.676122 7.876822 16.199956 26.766311 0.000000 0.000000 0.000000 -7.456471 0.847586 -8.994900 5.234005 -0.383820 4.809852 -10.983159 -25.122300 21.697185 0.000000 0.000000 0.000000 0.876283 -0.633103 24.301852 -8.228512 2.573226 -18.441851 -7.181203 8.497929 24.969055 14.305986 -5.529196 -28.813886 0.000000 0.000000 0.000000 0.599445 -32.928523 11.121860 -33.525736 -50.988419 8.189340 15.584379 -26.400761 -2.571908 0.000000 0.000000 0.000000 9.379803 17.880509 7.908091 57.952823 58.541624 24.755364 -12.601262 32.535022 -1.765180 0.000000 0.000000 0.000000 
